<?xml version="1.0" encoding="UTF-8"?>
<svg width="300px" height="300px" viewBox="0 0 300 300" version="1.1" xmlns="http://www.w3.org/2000/svg" xmlns:xlink="http://www.w3.org/1999/xlink">
    <!-- Generator: Sketch 52.6 (67491) - http://www.bohemiancoding.com/sketch -->
    <title>Wordmark</title>
    <desc>Created with Sketch.</desc>
    <g id="Wordmark" stroke="none" stroke-width="1" fill="none" fill-rule="evenodd">
        <path d="M129.556419,151.849689 L150.525773,172.780144 L171.322865,151.665707 L150.473186,94.4879479 L129.556419,151.849689 Z M122.792847,170.39798 L106.260096,215.737079 L87.0662461,215.772871 L140.655835,68.1388013 L150.473186,68.1603964 L160.290537,68.1388013 L213.880126,215.772871 L194.686276,215.737079 L178.118586,170.302161 L163.080885,185.311967 L163.126159,185.357157 L161.411378,186.978376 L150.29068,198.078446 L140.892478,188.174576 L122.792847,170.39798 Z" id="Rectangle-1-Copy-10" fill="#000000"></path>
        <path d="M150,290 C227.319865,290 290,227.319865 290,150 C290,72.680135 227.319865,10 150,10 C72.680135,10 10,72.680135 10,150 C10,227.319865 72.680135,290 150,290 Z" id="Oval-1-Copy-5" stroke="#000000" stroke-width="20"></path>
    </g>
</svg>